<svg xmlns="http://www.w3.org/2000/svg" viewBox="782.224 -837.911 115.067 50.911">
  <defs>
    <style>
      .cls-1 {
        fill: #fff;
      }

      .cls-2 {
        fill: none;
      }
    </style>
  </defs>
  <g id="logotipo" transform="translate(782.224 -837.911)">
    <path id="Path_547" data-name="Path 547" class="cls-1" d="M139.069,58.191l-.5-2.509c-.2.033-.4.1-.569.134a6.921,6.921,0,0,1-.736.134c-.268.033-.535.067-.736.1h-.234c-.2,0-.4-.033-.569-.033a1.43,1.43,0,0,1-.836-.435,2.542,2.542,0,0,1-.368-1.572V48.156h3.88V45.279h-3.88V41.6h-3.847v3.679H128.8v2.877h1.873V54.98a5.457,5.457,0,0,0,.2,1.505,3.178,3.178,0,0,0,.7,1.271,3.6,3.6,0,0,0,1.4.87,5.754,5.754,0,0,0,1.672.3h.87a9.941,9.941,0,0,0,1.639-.2,6.226,6.226,0,0,0,1.907-.535" transform="translate(-85.717 -27.685)"/>
    <path id="Path_548" data-name="Path 548" class="cls-1" d="M98.241,54.341a4.5,4.5,0,0,0-1.84-1.672A6.8,6.8,0,0,0,93.023,52a6.572,6.572,0,0,0-3.245.7,6.007,6.007,0,0,0-2.007,1.739,5.789,5.789,0,0,0-1,2.275,11.973,11.973,0,0,0-.268,2.341,12.756,12.756,0,0,0,.268,2.609A5.259,5.259,0,0,0,87.8,63.841a5.014,5.014,0,0,0,2.04,1.505,8.533,8.533,0,0,0,3.312.569,13.933,13.933,0,0,0,2.843-.3,9.841,9.841,0,0,0,2.81-1.037l-.8-2.375a12.468,12.468,0,0,1-2.107.6,9.617,9.617,0,0,1-2.174.234,3.494,3.494,0,0,1-2.576-.8,3.288,3.288,0,0,1-.769-2.341h8.73V58.523a14.759,14.759,0,0,0-.134-2.007,4.949,4.949,0,0,0-.736-2.174m-7.76,3.144a7.143,7.143,0,0,1,.2-1.171,2.908,2.908,0,0,1,.468-.97,2.265,2.265,0,0,1,.8-.669,2.726,2.726,0,0,1,1.238-.234,1.967,1.967,0,0,1,1.907.87,4.632,4.632,0,0,1,.535,2.174H90.481Z" transform="translate(-57.566 -34.606)"/>
    <path id="Path_549" data-name="Path 549" class="cls-1" d="M221.841,54.341A4.5,4.5,0,0,0,220,52.669,6.8,6.8,0,0,0,216.623,52a6.572,6.572,0,0,0-3.245.7,6.007,6.007,0,0,0-2.007,1.739,5.789,5.789,0,0,0-1,2.275,11.973,11.973,0,0,0-.268,2.341,12.755,12.755,0,0,0,.268,2.609,5.258,5.258,0,0,0,1.037,2.174,5.014,5.014,0,0,0,2.04,1.505,8.533,8.533,0,0,0,3.312.569,13.932,13.932,0,0,0,2.843-.3,9.841,9.841,0,0,0,2.81-1.037L221.64,62.2a12.468,12.468,0,0,1-2.107.6,9.617,9.617,0,0,1-2.174.234,3.494,3.494,0,0,1-2.576-.8,3.144,3.144,0,0,1-.769-2.341h8.764V58.523a15.185,15.185,0,0,0-.167-2.007,4.993,4.993,0,0,0-.769-2.174m-7.76,3.144a7.143,7.143,0,0,1,.2-1.171,2.908,2.908,0,0,1,.468-.97,2.266,2.266,0,0,1,.8-.669,2.726,2.726,0,0,1,1.238-.234,1.967,1.967,0,0,1,1.907.87,4.632,4.632,0,0,1,.535,2.174h-5.151Z" transform="translate(-139.822 -34.606)"/>
    <rect id="Rectangle_486" data-name="Rectangle 486" class="cls-1" width="1.037" height="1.07" transform="translate(96.436 19.401)"/>
    <rect id="Rectangle_487" data-name="Rectangle 487" class="cls-1" width="1.07" height="1.07" transform="translate(98.275 19.401)"/>
    <rect id="Rectangle_488" data-name="Rectangle 488" class="cls-1" width="1.037" height="1.07" transform="translate(100.115 19.401)"/>
    <rect id="Rectangle_489" data-name="Rectangle 489" class="cls-1" width="1.037" height="1.037" transform="translate(96.436 17.595)"/>
    <rect id="Rectangle_490" data-name="Rectangle 490" class="cls-1" width="1.07" height="1.037" transform="translate(98.275 17.595)"/>
    <rect id="Rectangle_491" data-name="Rectangle 491" class="cls-1" width="1.037" height="1.037" transform="translate(100.115 17.595)"/>
    <rect id="Rectangle_492" data-name="Rectangle 492" class="cls-1" width="1.037" height="1.037" transform="translate(96.436 15.755)"/>
    <rect id="Rectangle_493" data-name="Rectangle 493" class="cls-1" width="1.07" height="1.037" transform="translate(98.275 15.755)"/>
    <rect id="Rectangle_494" data-name="Rectangle 494" class="cls-1" width="1.037" height="1.037" transform="translate(100.115 15.755)"/>
    <rect id="Rectangle_495" data-name="Rectangle 495" class="cls-1" width="1.037" height="1.07" transform="translate(96.436 13.915)"/>
    <rect id="Rectangle_496" data-name="Rectangle 496" class="cls-1" width="1.07" height="1.07" transform="translate(98.275 13.915)"/>
    <rect id="Rectangle_497" data-name="Rectangle 497" class="cls-1" width="1.037" height="1.07" transform="translate(100.115 13.915)"/>
    <path id="Path_550" data-name="Path 550" class="cls-1" d="M177.344,54.843a3.426,3.426,0,0,0-.6-1.472,3.535,3.535,0,0,0-1.271-1A5.472,5.472,0,0,0,173.33,52a7.756,7.756,0,0,0-2.241.4,9.651,9.651,0,0,0-2.442,1.171l-.1.067-.067-1.505H164.8v13.48h3.88v-9.6a9.313,9.313,0,0,1,1.539-.7,4.625,4.625,0,0,1,1.539-.3,2.854,2.854,0,0,1,1,.167,1.4,1.4,0,0,1,.569.5,1.75,1.75,0,0,1,.268.769,8.22,8.22,0,0,1,.067.937v8.262h3.88V56.583a9.533,9.533,0,0,0-.2-1.739" transform="translate(-109.675 -34.606)"/>
    <path id="Path_551" data-name="Path 551" class="cls-1" d="M50.33,62.938H46.283c-.7,0-1-.3-1-.7s.5-.769,1.3-.769c.435,0,1.137-.033,1.672-.033,3.947,0,6.355-1.84,6.355-4.65S52.17,51.9,48.29,51.9c-3.914,0-6.121,2.174-6.121,4.984a3.638,3.638,0,0,0,1.773,3.445c-.736.334-2.141.87-2.141,2.509,0,2.074,1.4,2.408,4.181,2.408h3.579c1.438,0,2.04.6,2.04,1.739,0,1.1-.736,1.94-3.278,1.94-1.907,0-3.245-.535-3.245-1.94v-.2H41.7a4.94,4.94,0,0,0-.1.9c0,.9.3,3.813,6.289,3.813,6.69,0,7.693-2.542,7.693-4.951.033-2.375-2.341-3.613-5.252-3.613m-1.94-8.53a2.2,2.2,0,0,1,2.442,2.375c0,1.639-1.238,2.241-2.609,2.241a2.018,2.018,0,0,1-2.208-2.241,2.15,2.15,0,0,1,2.375-2.375" transform="translate(-27.685 -34.54)"/>
    <path id="Path_552" data-name="Path 552" class="cls-1" d="M262.569,58.191l-.5-2.509c-.2.033-.4.1-.569.134a6.922,6.922,0,0,1-.736.134c-.268.033-.535.067-.736.1h-.234c-.2,0-.4-.033-.569-.033a1.429,1.429,0,0,1-.836-.435,2.542,2.542,0,0,1-.368-1.572V48.156h3.88V45.279h-3.88V41.6h-3.847v3.679H252.3v2.877h1.873V54.98a5.456,5.456,0,0,0,.2,1.505,3.178,3.178,0,0,0,.7,1.271,3.6,3.6,0,0,0,1.4.87,5.754,5.754,0,0,0,1.672.3h.87a9.941,9.941,0,0,0,1.639-.2,5.737,5.737,0,0,0,1.907-.535" transform="translate(-167.906 -27.685)"/>
    <rect id="Rectangle_498" data-name="Rectangle 498" class="cls-2" width="115.067" height="50.911"/>
  </g>
</svg>
