<svg xmlns="http://www.w3.org/2000/svg" viewBox="19392.102 -664.253 21.283 35.853">
  <defs>
    <style>
      .cls-1 {
        fill: #501e50;
      }
    </style>
  </defs>
  <g id="noun_257103_cc" transform="translate(19392.102 -664.253)">
    <g id="Group_1141" data-name="Group 1141" transform="translate(0 0)">
      <path id="Path_890" data-name="Path 890" class="cls-1" d="M51.209,1H39.4V9.821H51.209ZM48.392,7.744h-6.2a.74.74,0,0,1,0-1.48h6.2a.735.735,0,0,1,.74.74A.753.753,0,0,1,48.392,7.744Zm0-3.415h-6.2a.735.735,0,0,1-.74-.74.718.718,0,0,1,.74-.74h6.2a.74.74,0,0,1,0,1.48Z" transform="translate(-35.758 -1)"/>
      <path id="Path_891" data-name="Path 891" class="cls-1" d="M43.5,28.658H28.791V25.3H27.738A1.142,1.142,0,0,0,26.6,26.438V53.1a1.142,1.142,0,0,0,1.138,1.138H44.7V25.3H43.5ZM32.462,49.913h-.825a.74.74,0,0,1,0-1.48h.825a.74.74,0,0,1,0,1.48Zm0-3.728h-.825a.74.74,0,0,1,0-1.48h.825a.74.74,0,0,1,0,1.48Zm0-3.728h-.825a.735.735,0,0,1-.74-.74.718.718,0,0,1,.74-.74h.825a.735.735,0,0,1,.74.74A.718.718,0,0,1,32.462,42.458Zm4.069,7.455h-.825a.74.74,0,0,1,0-1.48h.825a.74.74,0,1,1,0,1.48Zm0-3.728h-.825a.74.74,0,1,1,0-1.48h.825a.74.74,0,1,1,0,1.48Zm0-3.728h-.825a.735.735,0,0,1-.74-.74.718.718,0,0,1,.74-.74h.825a.735.735,0,0,1,.74.74A.718.718,0,0,1,36.531,42.458ZM40.6,49.913h-.8a.74.74,0,0,1,0-1.48h.825a.735.735,0,0,1,.74.74A.779.779,0,0,1,40.6,49.913Zm0-3.728h-.8a.74.74,0,0,1,0-1.48h.825a.735.735,0,0,1,.74.74A.779.779,0,0,1,40.6,46.186Zm0-3.728h-.8a.735.735,0,0,1-.74-.74.718.718,0,0,1,.74-.74h.825a.74.74,0,1,1-.028,1.48Zm2.333-5.919h-13.6V30.365h13.6Z" transform="translate(-26.6 -18.385)"/>
      <path id="Path_892" data-name="Path 892" class="cls-1" d="M95.9,25.3h-.6V54.239h.6A1.142,1.142,0,0,0,97.036,53.1V26.438A1.142,1.142,0,0,0,95.9,25.3Z" transform="translate(-75.752 -18.385)"/>
    </g>
  </g>
</svg>
